{"asset":{"version":"2.0","generator":"rootwake make-sample-rig"},"scene":0,"scenes":[{"nodes":[0,1]}],"nodes":[{"name":"Figure","mesh":0,"skin":0},{"name":"Hips","children":[2],"translation":[0,0,0]},{"name":"Spine","translation":[0,0.9,0]}],"skins":[{"inverseBindMatrices":5,"joints":[1,2],"skeleton":1}],"meshes":[{"primitives":[{"attributes":{"POSITION":0,"NORMAL":1,"JOINTS_0":2,"WEIGHTS_0":3},"indices":4,"material":0}]}],"materials":[{"pbrMetallicRoughness":{"baseColorFactor":[0.55,0.7,0.45,1],"metallicFactor":0,"roughnessFactor":0.9}}],"animations":[{"name":"Idle","samplers":[{"input":6,"output":7,"interpolation":"LINEAR"}],"channels":[{"sampler":0,"target":{"node":2,"path":"rotation"}}]},{"name":"Walking","samplers":[{"input":8,"output":9,"interpolation":"LINEAR"}],"channels":[{"sampler":0,"target":{"node":2,"path":"rotation"}}]},{"name":"Running","samplers":[{"input":10,"output":11,"interpolation":"LINEAR"}],"channels":[{"sampler":0,"target":{"node":2,"path":"rotation"}}]}],"buffers":[{"byteLength":1796,"uri":"data:application/octet-stream;base64,"}],"bufferViews":[{"buffer":0,"byteOffset":0,"byteLength":144,"target":34962},{"buffer":0,"byteOffset":144,"byteLength":144,"target":34962},{"buffer":0,"byteOffset":288,"byteLength":48,"target":34962},{"buffer":0,"byteOffset":336,"byteLength":192,"target":34962},{"buffer":0,"byteOffset":528,"byteLength":120,"target":34963},{"buffer":0,"byteOffset":648,"byteLength":128},{"buffer":0,"byteOffset":776,"byteLength":68},{"buffer":0,"byteOffset":844,"byteLength":272},{"buffer":0,"byteOffset":1116,"byteLength":68},{"buffer":0,"byteOffset":1184,"byteLength":272},{"buffer":0,"byteOffset":1456,"byteLength":68},{"buffer":0,"byteOffset":1524,"byteLength":272}],"accessors":[{"bufferView":0,"componentType":5126,"count":12,"type":"VEC3","min":[-0.3,0,-0.2],"max":[0.3,1.8,0.2]},{"bufferView":1,"componentType":5126,"count":12,"type":"VEC3"},{"bufferView":2,"componentType":5121,"count":12,"type":"VEC4"},{"bufferView":3,"componentType":5126,"count":12,"type":"VEC4"},{"bufferView":4,"componentType":5123,"count":60,"type":"SCALAR"},{"bufferView":5,"componentType":5126,"count":2,"type":"MAT4"},{"bufferView":6,"componentType":5126,"count":17,"type":"SCALAR","min":[0],"max":[2]},{"bufferView":7,"componentType":5126,"count":17,"type":"VEC4"},{"bufferView":8,"componentType":5126,"count":17,"type":"SCALAR","min":[0],"max":[1]},{"bufferView":9,"componentType":5126,"count":17,"type":"VEC4"},{"bufferView":10,"componentType":5126,"count":17,"type":"SCALAR","min":[0],"max":[0.6]},{"bufferView":11,"componentType":5126,"count":17,"type":"VEC4"}]}